PathFileType	4	(X/Y/Z)	 s05c0101.trc
DataRate	CameraRate	NumFrames	NumMarkers	Units	OrigDataRate	OrigDataStartFrame	OrigNumFrames
200	200	4	50	mm	200	1501	2000
Frame#	Time	racr			lacr			c7			jug			rlel			rdr			llel			ldr			s2			lic			ric			lasi			rasi			rpsi			lpsi			rgt			lgt			rth1			rth2			rth3			rth4			rlfc			rmfc			rsh1			rsh2			rsh3			rsh4			rlmal			rmmal			rcal			rtoe			rmt5			lth1			lth2			lth4			lth3			llfc			lmfc			lsh1			lsh2			lsh3			lsh4			llmal			lmmal			lcal			ltoe			lmt5			SBIKE			LBIKE			RBIKE			
		X1	Y1	Z1	X2	Y2	Z2	X3	Y3	Z3	X4	Y4	Z4	X5	Y5	Z5	X6	Y6	Z6	X7	Y7	Z7	X8	Y8	Z8	X9	Y9	Z9	X10	Y10	Z10	X11	Y11	Z11	X12	Y12	Z12	X13	Y13	Z13	X14	Y14	Z14	X15	Y15	Z15	X16	Y16	Z16	X17	Y17	Z17	X18	Y18	Z18	X19	Y19	Z19	X20	Y20	Z20	X21	Y21	Z21	X22	Y22	Z22	X23	Y23	Z23	X24	Y24	Z24	X25	Y25	Z25	X26	Y26	Z26	X27	Y27	Z27	X28	Y28	Z28	X29	Y29	Z29	X30	Y30	Z30	X31	Y31	Z31	X32	Y32	Z32	X33	Y33	Z33	X34	Y34	Z34	X35	Y35	Z35	X36	Y36	Z36	X37	Y37	Z37	X38	Y38	Z38	X39	Y39	Z39	X40	Y40	Z40	X41	Y41	Z41	X42	Y42	Z42	X43	Y43	Z43	X44	Y44	Z44	X45	Y45	Z45	X46	Y46	Z46	X47	Y47	Z47	X48	Y48	Z48	X49	Y49	Z49	X50	Y50	Z50	
1501	7.5050	459.574474	1331.771785	-163.409657	460.906401	1313.374454	-401.022999	438.261046	1388.828334	-287.959312	382.618851	1239.820355	-267.275887	507.848020	1104.329788	-6.011109	690.180787	936.956829	-71.533497	487.792085	1071.810615	-570.119391	687.684239	926.595963	-466.973691	-128.227768	1169.337001	-269.166245	11.360240	1185.775303	-414.004846	12.631247	1208.856646	-129.248733	62.111138	1136.258661	-381.127555	63.351480	1151.505549	-153.992007	-97.837026	1224.440115	-232.335539	-98.786236	1221.204614	-317.435894	-15.186551	1068.169490	-98.824805	-38.036524	1080.711661	-437.146647	77.880909	982.224793	-85.300191	153.078963	934.618363	-87.123479	192.832023	856.454685	-94.862877	179.119381	959.668978	-96.819111	296.778819	749.384744	-120.754179	280.365412	741.676653	-227.951958	256.458241	646.449477	-92.197281	271.738515	559.556642	-101.176501	244.336354	478.086613	-102.006311	299.900223	559.192586	-127.571074	235.365304	343.072127	-109.311419	246.460630	364.238872	-190.736949	168.337565	305.389985	-153.312712	465.181770	306.622472	-145.168013	364.789967	275.412501	-81.825911	80.596575	1000.685542	-449.323379	164.975500	983.219859	-446.287128	182.052591	1013.251929	-430.521446	231.275419	921.607233	-447.664349	338.319532	819.815379	-413.933433	318.470838	805.676051	-307.407723	247.723359	734.298017	-443.040186	203.844972	659.735496	-430.377106	127.279531	614.936672	-433.042960	226.274374	640.165392	-405.988911	48.160040	532.183858	-430.416397	83.024485	532.417669	-355.009745	-18.173707	548.782113	-386.832542	152.762731	308.702500	-396.910799	64.397118	376.964650	-457.323891	-259.469814	898.897633	-280.229660	-43.603925	84.748487	-475.121134	-51.842514	79.987066	-77.574163	
1502	7.5100	460.696030	1331.801226	-164.823846	460.769642	1313.254374	-402.453591	438.878868	1388.879058	-289.156015	382.986971	1240.009133	-268.201025	509.178493	1104.856991	-6.576901	690.760448	935.965953	-72.120082	487.267757	1071.116212	-570.953558	687.791241	926.701920	-466.839501	-127.092799	1169.875349	-266.384990	10.762079	1187.066209	-412.071608	14.662264	1208.675579	-127.321904	62.219678	1137.882186	-379.802926	64.842865	1151.008073	-152.660143	-96.531218	1224.837220	-229.499224	-98.347324	1221.978801	-314.456440	-14.512530	1066.809421	-97.726080	-37.821512	1083.179104	-435.757971	76.844575	979.047052	-83.968415	150.478544	929.237232	-85.834282	187.838442	849.903469	-93.834148	177.269495	953.597870	-95.285788	288.979411	740.319440	-119.795090	271.743124	732.163476	-226.763022	249.200897	637.331892	-90.873343	265.389340	550.626452	-99.835122	239.039184	468.762891	-100.890300	293.694564	550.605268	-125.997892	232.593671	333.511027	-108.985491	243.589732	354.758635	-190.299738	166.285975	295.319527	-154.430134	462.481440	295.490526	-145.434316	361.854937	265.061656	-81.930151	81.447971	1004.911481	-449.159560	166.127918	989.240425	-446.383474	182.609753	1019.537007	-430.403642	233.704253	929.122292	-448.490571	343.022945	829.075889	-415.369854	323.441266	814.691115	-308.756150	252.236959	743.847255	-443.757815	207.996915	669.635048	-430.962213	131.139227	625.206609	-433.286282	230.563098	649.965410	-406.756319	51.390590	542.693196	-430.298105	86.307311	542.957608	-354.921815	-15.571636	559.024586	-386.246920	156.137579	319.374484	-396.714861	67.695343	387.482259	-457.099456	-259.713195	898.973878	-279.849440	-43.562126	84.831326	-475.107988	-51.810352	80.011442	-77.563573	
1503	7.5150	461.724196	1332.005171	-166.021022	460.731753	1313.147502	-403.872560	439.500524	1388.996699	-290.254890	383.371228	1240.275285	-268.930055	510.707717	1105.419430	-7.322111	691.488473	935.556886	-72.334101	486.757303	1070.406708	-571.257246	687.661892	927.066494	-466.666292	-125.800172	1170.569576	-263.564107	10.183773	1188.640865	-410.232800	16.833665	1208.570963	-125.547150	62.222257	1139.782477	-378.465251	66.476708	1150.768306	-151.313890	-95.183811	1225.327078	-226.750298	-97.830004	1223.079017	-311.671030	-13.839899	1065.587860	-96.726785	-37.532284	1085.889015	-434.449232	75.585707	976.157304	-82.735033	147.388752	923.765845	-85.174312	182.635466	843.438589	-92.683285	175.168490	947.385676	-94.635443	280.838746	731.479717	-118.762566	263.032088	723.031463	-225.366296	241.475555	628.451790	-89.342632	258.500960	541.978777	-98.478894	233.016379	459.763015	-99.869581	287.231718	542.321584	-124.618737	229.419385	324.427661	-108.696174	240.134545	345.700563	-189.918191	162.032762	287.767854	-153.278470	459.066660	284.656490	-145.680736	358.346466	254.897429	-82.036959	82.213357	1009.512749	-448.818526	167.233664	995.634069	-446.446315	183.123548	1026.173948	-430.208420	236.053868	936.949594	-449.125151	347.541438	838.659727	-416.924617	328.504346	823.828629	-310.196684	256.649972	753.679694	-444.603351	212.185769	679.706078	-431.686647	135.068711	635.496014	-433.536252	234.693346	659.562234	-407.690688	54.883617	553.012509	-430.237107	89.691228	553.423254	-354.817089	-12.460877	569.168514	-386.106700	160.230362	329.920844	-396.500848	71.610684	397.829011	-456.868043	-260.158364	899.078778	-279.646997	-43.544557	84.904540	-475.086513	-51.783812	80.038402	-77.545133	
1504	7.5200	462.769347	1332.298687	-167.153170	461.604699	1313.899709	-406.280280	440.064761	1389.152289	-291.293967	385.044549	1240.018070	-270.007775	512.347049	1106.069061	-7.904592	692.596020	935.509411	-72.353995	486.429305	1069.888362	-571.506792	688.081861	927.018088	-466.848553	-125.868722	1171.125377	-261.581125	9.601999	1190.399562	-408.474302	19.040545	1208.311641	-123.520199	62.132617	1141.805640	-377.193723	68.203064	1150.442561	-150.361101	-93.860066	1225.851985	-223.632254	-97.923186	1224.357070	-309.641449	-13.218480	1064.596932	-95.652845	-37.242191	1088.833543	-433.263272	73.949258	973.696488	-80.619917	144.371572	918.700932	-83.669746	176.666598	837.210632	-91.643503	172.669876	941.361353	-93.470568	272.156822	723.063067	-117.673239	254.152185	714.483821	-224.042373	233.669078	619.885761	-87.807812	251.476874	533.582526	-97.259302	226.739296	451.234388	-98.849037	280.184622	534.352055	-123.227673	225.633274	315.888854	-108.319317	236.328213	337.019217	-189.529012	158.031154	279.781705	-152.943244	455.148416	273.900123	-145.948368	354.286627	245.110540	-82.171501	82.955070	1014.514742	-448.323271	168.261998	1002.382990	-446.431907	183.577033	1033.102110	-429.937555	238.218410	945.200139	-449.749843	351.788840	848.505725	-418.563341	333.517205	833.040129	-311.551832	260.937697	763.733219	-445.415578	216.388336	689.864688	-432.551288	139.084927	645.890971	-433.821342	239.045765	669.554118	-408.818753	58.624091	562.974014	-430.179081	93.772780	563.675312	-354.925638	-8.515271	578.946782	-385.809672	164.959414	340.428220	-396.385501	76.035911	407.965431	-456.688326	-260.219452	899.064786	-279.126061	-43.519570	84.960009	-475.086489	-51.768578	80.041658	-77.542928	
